# xmcd CD database file
#
# Track frame offsets:
#	150
#	27111
#	45645
#	67395
#	91117
#	113664
#	140712
#	148611
#	171077
#	200685
#	209259
#	230929
#	247673
#	270109
#	290590
#
# Disc length: 4084 seconds
#
# Revision: 3
# Processed by: cddbd v1.5.2PL0 Copyright (c) Steve Scherf et al.
# Submitted via: CDex 1.90
#
DISCID=de0ff20f
DTITLE=Lee Ritenour - Lee Ritenour's 6 string theory
DYEAR=2010
DGENRE=Jazz
TTITLE0=Lay It Down
TTITLE1=Am I Wrong
TTITLE2=L.P. (For Les Paul)
TTITLE3=Give Me One Reason
TTITLE4="68"
TTITLE5=In Your Dreams
TTITLE6=My One and Only Love
TTITLE7=Moon River
TTITLE8=Why I Sing the Blues
TTITLE9=It's Not Easy
TTITLE10=Shape of My Heart
TTITLE11=Drifting
TTITLE12=Freeway Jam
TTITLE13=Fives
TTITLE14=Caprices, OP. 20, No. 2 and 7
EXTD=YEAR: 2010
EXTT0=
EXTT1=
EXTT2=
EXTT3=
EXTT4=
EXTT5=
EXTT6=
EXTT7=
EXTT8=
EXTT9=
EXTT10=
EXTT11=
EXTT12=
EXTT13=
EXTT14=
PLAYORDER=
